PathFileType	4	(X/Y/Z)	pose_F01_0-96.trc
DataRate	CameraRate	NumFrames	NumMarkers	Units	OrigDataRate	OrigDataStartFrame	OrigNumFrames
30	30	9	21	m	30	16	96
Frame#	Time	CHip			RHip			RKnee			RAnkle			RBigToe			RSmallToe			RHeel			LHip			LKnee			LAnkle			LBigToe			LSmallToe			LHeel			Neck			Nose			RShoulder			RElbow			RWrist			LShoulder			LElbow			LWrist			
		X1	Y1	Z1	X2	Y2	Z2	X3	Y3	Z3	X4	Y4	Z4	X5	Y5	Z5	X6	Y6	Z6	X7	Y7	Z7	X8	Y8	Z8	X9	Y9	Z9	X10	Y10	Z10	X11	Y11	Z11	X12	Y12	Z12	X13	Y13	Z13	X14	Y14	Z14	X15	Y15	Z15	X16	Y16	Z16	X17	Y17	Z17	X18	Y18	Z18	X19	Y19	Z19	X20	Y20	Z20	X21	Y21	Z21	
16	0.5333333333333333	-0.25495498183581095	1.8620192840708887	-0.5842445264922876	-0.2690781591413063	1.860023359574948	-0.5133081237806724	-0.26522686187480105	1.7187274607741376	-0.46634730998754054													-0.24266855812813334	1.8640507428823672	-0.64760480642693	-0.22337038627511244	1.7182143342301004	-0.675487092488307													-0.2593378704079398	2.0404889331954874	-0.601901735160389	-0.248124798452607	2.1104774300483804	-0.5744407793562815	-0.27542434317010756	2.0371492566545775	-0.5054235430706306	-0.26555480097155554	2.0452622741046094	-0.3893567203529184	-0.23410730002835864	2.1140449049303953	-0.3736917044657227	-0.23750540993434416	2.0433170136971155	-0.6973427260705967	-0.21044520707456724	1.9720748841748257	-0.7689166560690122	-0.16298750750073332	1.9760558624813953	-0.7727930983744479
17	0.5666666666666667	-0.25495498183581095	1.8620192840708887	-0.5842445264922876	-0.2690781591413063	1.860023359574948	-0.5133081237806724	-0.26522686187480105	1.7187274607741376	-0.46634730998754054													-0.24266855812813334	1.8640507428823672	-0.64760480642693	-0.22337038627511244	1.7182143342301004	-0.675487092488307													-0.2525229939978028	2.0368484445353965	-0.6146673592343151	-0.2419508704078792	2.110006330781628	-0.5901288207195916	-0.27282784730568366	2.0346133544320817	-0.5222186355554816	-0.26945431236734546	2.0388862531981733	-0.40003078565669226	-0.23764154067797919	2.103645250578905	-0.38523379370429855	-0.23453357000224875	2.040704417029565	-0.7059995725088785	-0.2050863344994055	1.975198220582417	-0.7805965360569663	-0.15717056800111792	1.9980133260389896	-0.7889976722789621
18	0.6	-0.25353049188454824	1.8663839762526564	-0.590334235967846	-0.26562479935313343	1.8629753053242464	-0.5212430796882142	-0.26522686187480105	1.7187274607741376	-0.46634730998754054													-0.23872913629000372	1.8693648928073638	-0.6643352046940199	-0.22337038627511244	1.7182143342301004	-0.675487092488307													-0.25340878289951546	2.0400021471753895	-0.6188632308460692	-0.24172339581986738	2.114296263652346	-0.5994230370042415	-0.2718817234219829	2.039149132824137	-0.5289763868317047	-0.25699743098610717	2.0512173694347733	-0.4205992220665628	-0.23022293972388863	2.1110619096672827	-0.40278512375998654	-0.23407496689138427	2.0452740154436455	-0.7149478007160952	-0.20122992928414812	1.9867521286725591	-0.7895696348501778	-0.15882232473465513	2.0217805876951025	-0.8017665701499227
19	0.6333333333333333	-0.2528786386618549	1.878026447920196	-0.6004778049829106	-0.2661436887970331	1.8753356869264342	-0.5348426625241014	-0.26522686187480105	1.7187274607741376	-0.46634730998754054													-0.23802688665637486	1.8792772260788035	-0.6741898043226474	-0.22337038627511244	1.7182143342301004	-0.675487092488307													-0.25286051549889765	2.0502654959153617	-0.6284936496523584	-0.24323542424011949	2.1218628450194017	-0.6066798785468542	-0.2705640996539956	2.048052632071318	-0.5356449195947416	-0.25828921172053765	2.051814197820535	-0.4329940253600782	-0.22929063067147057	2.117127896352328	-0.4109337761276637	-0.23157663562244024	2.0524910138328067	-0.7182453590845104	-0.19336320798921858	2.002835171848735	-0.7958084793755528	-0.16796155794515033	2.0426628436066747	-0.796820821247159
20	0.6666666666666666	-0.2502900338769862	1.8814593904025718	-0.6030355237557949	-0.26276514895040504	1.877977071708523	-0.5342461027804758	-0.26543947255718736	1.7188025166357999	-0.46957843603227434													-0.23639264138999516	1.8830387519386378	-0.6716157498250054	-0.22337038627511244	1.7182143342301004	-0.675487092488307													-0.2504915686024462	2.055515744587068	-0.6308297632801014	-0.24271128969377656	2.1282641782865106	-0.6146480096576649	-0.26935550424211174	2.050641806369745	-0.5406581044474836	-0.26111105024817877	2.0560604096004305	-0.4343227787377887	-0.23134930962943037	2.1194766129474263	-0.41690699478701	-0.2311817176093837	2.0583500613368377	-0.7182487762597128	-0.18527683629245822	2.022783938654467	-0.8032932835287085	-0.1775466305472902	2.0833035854936437	-0.7881302565377613
21	0.7	-0.2512076353093992	1.8789236739456052	-0.6060187819986812	-0.2626137788725261	1.8770367449537626	-0.5425324526963864	-0.2656520832395736	1.718877572497462	-0.47280956207700814													-0.23547032478898836	1.8797602273823375	-0.6766896026408519	-0.22337038627511244	1.7182143342301004	-0.675487092488307													-0.24935401165487175	2.055620924555802	-0.6361946935674611	-0.2415912757055251	2.1284977879603875	-0.6197739065724387	-0.26928512708113506	2.052304414604327	-0.5494418447832478	-0.2609384888397743	2.059305420922265	-0.43484300343389953	-0.23139349428981937	2.127945070428959	-0.42851333532291563	-0.22996275319720777	2.058402195915735	-0.723537935964281	-0.18416178408103812	2.030234840552688	-0.8010573802035982	-0.17801603460188042	2.094363768566445	-0.7816772638088841
22	0.7333333333333333	-0.24929987584823277	1.880266978589659	-0.6084283796151292	-0.26272381731948763	1.8780117110001011	-0.5428570396460856	-0.26586469392195994	1.7189526283591243	-0.47604068812174194													-0.2352963559909335	1.8812211539269514	-0.6769219060865187	-0.22337038627511244	1.7182143342301004	-0.675487092488307													-0.2502204195331688	2.0557292798641886	-0.6391201183020216	-0.2405215372641183	2.128631370410145	-0.6250578265868554	-0.2691909397997496	2.0535088676616566	-0.549416162996034	-0.2628465579700565	2.0593643957546663	-0.4327731008756401	-0.23522894583313186	2.1318796857212434	-0.43303452072309473	-0.22900023671080463	2.0605646171152974	-0.7208377554174397	-0.18116063552270945	2.037032930863421	-0.8021529440158753	-0.17387626201258713	2.104944391038072	-0.7686836928564243
23	0.7666666666666667	-0.25009199382903863	1.8835063390446796	-0.6118981774963312	-0.26171227071546627	1.8822882597865829	-0.5486964906247985	-0.26607730460434625	1.7190276842207866	-0.4792718141664758													-0.23617260555712583	1.8855203391668625	-0.6803659953403666	-0.22337038627511244	1.7182143342301004	-0.675487092488307													-0.249285939667966	2.0569139650536155	-0.6365655191846313	-0.2413684961474678	2.1301596394567044	-0.6284954180724713	-0.2692591693775482	2.0524624202020156	-0.5495254946658683	-0.26081997810503865	2.0612454249181704	-0.43472085838284763	-0.23611829936622833	2.1349856706494017	-0.4355748987984873	-0.2282070418150579	2.0603800204631395	-0.7183447045995108	-0.17868041036395113	2.041453229656886	-0.804532686020013	-0.17385042414965282	2.109801541799547	-0.7697886228272839
24	0.8	-0.25003010747155496	1.8825491837573716	-0.611658330757448	-0.2635003219491008	1.8800241433814002	-0.5461992966632194	-0.2662899152867325	1.7191027400824488	-0.4825029402112096													-0.23524755658354718	1.8851501547678846	-0.6771712792086164	-0.22337038627511244	1.7182143342301004	-0.675487092488307													-0.24932920801517283	2.0568683351101	-0.6365085331852885	-0.241445533896435	2.1311846290770453	-0.6291551269251523	-0.2692801091485484	2.052452901364243	-0.5494569073424223	-0.2607913010918523	2.0632254398952283	-0.43498978745218775	-0.23898693558020523	2.1355258535361967	-0.43735706259762214	-0.22824202135985716	2.060559290956089	-0.7182830539356622	-0.1777319251353412	2.04696315241676	-0.8020049848850475	-0.173591548702475	2.114032835289428	-0.7691812147226945
